<svg viewBox="0 0 22 19" fill="white" xmlns="http://www.w3.org/2000/svg">
  <path
    d="M20.6305 13.4508H6.67351L7.37429 12.0234L19.018 12.0023C19.4118 12.0023 19.7493 11.7211 19.8196 11.332L21.4321 2.30625C21.4743 2.06953 21.411 1.82578 21.2563 1.64062C21.1799 1.5495 21.0845 1.4761 20.9769 1.42551C20.8692 1.37492 20.7518 1.34835 20.6329 1.34766L5.82039 1.29844L5.69382 0.703125C5.61414 0.323437 5.27195 0.046875 4.88289 0.046875H1.26179C1.04237 0.046875 0.831929 0.134041 0.676772 0.289198C0.521615 0.444355 0.434448 0.654794 0.434448 0.874219C0.434448 1.09364 0.521615 1.30408 0.676772 1.45924C0.831929 1.6144 1.04237 1.70156 1.26179 1.70156H4.21257L4.7657 4.33125L6.12742 10.9242L4.37429 13.7859C4.28325 13.9088 4.22841 14.0547 4.21599 14.2071C4.20356 14.3596 4.23404 14.5124 4.30398 14.6484C4.4446 14.9273 4.7282 15.1031 5.04226 15.1031H6.51413C6.20035 15.5199 6.03086 16.0275 6.03132 16.5492C6.03132 17.8758 7.10945 18.9539 8.43601 18.9539C9.76257 18.9539 10.8407 17.8758 10.8407 16.5492C10.8407 16.0266 10.6673 15.518 10.3579 15.1031H14.1337C13.8199 15.5199 13.6504 16.0275 13.6509 16.5492C13.6509 17.8758 14.729 18.9539 16.0555 18.9539C17.3821 18.9539 18.4602 17.8758 18.4602 16.5492C18.4602 16.0266 18.2868 15.518 17.9774 15.1031H20.6329C21.0876 15.1031 21.4602 14.7328 21.4602 14.2758C21.4589 14.0566 21.3709 13.8468 21.2154 13.6923C21.06 13.5377 20.8497 13.4509 20.6305 13.4508ZM6.16492 2.92969L19.6602 2.97422L18.3384 10.3758L7.73757 10.3945L6.16492 2.92969ZM8.43601 17.2898C8.0282 17.2898 7.69538 16.957 7.69538 16.5492C7.69538 16.1414 8.0282 15.8086 8.43601 15.8086C8.84382 15.8086 9.17663 16.1414 9.17663 16.5492C9.17663 16.7456 9.09861 16.934 8.95971 17.0729C8.82082 17.2118 8.63244 17.2898 8.43601 17.2898ZM16.0555 17.2898C15.6477 17.2898 15.3149 16.957 15.3149 16.5492C15.3149 16.1414 15.6477 15.8086 16.0555 15.8086C16.4634 15.8086 16.7962 16.1414 16.7962 16.5492C16.7962 16.7456 16.7181 16.934 16.5792 17.0729C16.4403 17.2118 16.252 17.2898 16.0555 17.2898Z"
    fill="white"
  />
</svg>
