<svg viewBox="0 0 173 38" fill="none" xmlns="http://www.w3.org/2000/svg">
<path d="M55.0491 16.7345C55.0353 17.0388 54.9039 17.3223 54.655 17.5851C54.406 17.834 54.0741 17.9723 53.6592 18C52.8708 18.0553 51.9235 18.083 50.817 18.083C49.7106 18.083 48.694 18.0553 47.7674 18C47.3525 17.9723 47.0205 17.834 46.7716 17.5851C46.5226 17.3223 46.3912 17.0388 46.3774 16.7345C46.3359 14.6323 46.3152 12.8412 46.3152 11.3614C46.3152 9.86766 46.3221 8.77505 46.3359 8.08353C46.3359 7.55797 46.1008 7.29519 45.6306 7.29519H43.7635C43.473 7.29519 43.2379 7.22603 43.0581 7.08773C42.8783 6.94942 42.7746 6.70739 42.7469 6.36163C42.7331 6.01586 42.7262 5.65627 42.7262 5.28285C42.7262 4.90942 42.7331 4.59132 42.7469 4.32854C42.7746 4.05193 42.8852 3.84447 43.0788 3.70617C43.2863 3.55403 43.5076 3.47797 43.7427 3.47797C45.5407 3.45031 47.9748 3.43647 51.0452 3.43647C54.1156 3.43647 56.3146 3.45031 57.6424 3.47797C57.8775 3.4918 58.0919 3.56786 58.2855 3.70617C58.4929 3.84447 58.6036 4.05193 58.6174 4.32854C58.6451 4.59132 58.6589 4.90251 58.6589 5.2621C58.6589 5.6217 58.652 5.96746 58.6382 6.29939C58.5967 6.92176 58.2578 7.23295 57.6216 7.23295H55.7545C55.2843 7.23295 55.0491 7.47498 55.0491 7.95905C55.0906 9.70169 55.1114 11.2784 55.1114 12.6891C55.1114 14.0998 55.0906 15.4483 55.0491 16.7345ZM59.528 17.0249L59.4865 10.2411C59.4865 8.16651 59.5072 6.14725 59.5487 4.18332C59.5625 3.72691 59.6455 3.38807 59.7977 3.16678C59.9636 2.94549 60.2748 2.83485 60.7312 2.83485H64.7144C65.1708 2.83485 65.4751 2.94549 65.6272 3.16678C65.7932 3.37424 65.89 3.76149 65.9177 4.32854C65.9591 4.88176 65.9937 6.37546 66.0214 8.80963C67.1002 7.71702 68.3933 7.17071 69.9008 7.17071C71.4222 7.17071 72.6185 7.54414 73.4899 8.29098C74.3612 9.03783 74.8038 10.0682 74.8176 11.3821C74.8452 12.696 74.8591 13.8716 74.8591 14.9089C74.8591 15.9462 74.8522 16.6446 74.8383 17.0042C74.8245 17.3638 74.7277 17.6266 74.5479 17.7925C74.3819 17.9447 74.05 18.0207 73.5521 18.0207L69.5689 18.0622C69.1263 18.0622 68.8151 17.9862 68.6354 17.834C68.4694 17.6681 68.3864 17.426 68.3864 17.1079L68.4071 12.046C68.4071 11.6311 68.3034 11.3199 68.096 11.1124C67.8885 10.9049 67.6257 10.8012 67.3076 10.8012C67.0034 10.8012 66.7267 10.9119 66.4778 11.1332C66.2288 11.3406 66.0975 11.638 66.0836 12.0252L65.9591 17.0249C65.9453 17.2877 65.8208 17.509 65.5857 17.6888C65.3506 17.8686 65.0602 17.9723 64.7144 18C64.3825 18.0277 64.009 18.0415 63.5941 18.0415L60.6897 18C60.4269 18 60.1642 17.9101 59.9014 17.7303C59.6524 17.5367 59.528 17.3016 59.528 17.0249ZM78.7685 8.08353C79.4047 7.76542 80.0548 7.53722 80.7186 7.39891C81.3963 7.26061 82.2261 7.19146 83.2081 7.19146C84.2039 7.19146 85.1513 7.31593 86.0503 7.56488C86.9493 7.8 87.62 8.12502 88.0626 8.53993C88.8371 9.30061 89.2244 10.1927 89.2244 11.2161C89.2244 12.8205 87.869 13.6226 85.1582 13.6226C84.2039 13.6226 83.215 13.5327 82.1916 13.3529C82.2331 14.2658 82.399 14.9089 82.6895 15.2823C82.9937 15.6557 83.5262 15.8424 84.2869 15.8424C85.0476 15.8424 85.6769 15.7595 86.1748 15.5935C86.6727 15.4275 87.0737 15.2616 87.378 15.0956C87.6823 14.9158 87.9381 14.8259 88.1456 14.8259C88.3669 14.8259 88.5536 14.9227 88.7057 15.1163C88.9409 15.3653 89.0584 15.7111 89.0584 16.1536C89.0584 16.5824 88.9685 16.8797 88.7887 17.0457C88.6228 17.1978 88.3531 17.35 87.9796 17.5021C86.6657 18.0553 84.7986 18.3319 82.3783 18.3319C80.3729 18.3319 78.7201 17.8548 77.42 16.9005C76.1338 15.9323 75.4907 14.6323 75.4907 13.0003C75.4907 12.2119 75.6359 11.4927 75.9263 10.8427C76.2168 10.1788 76.604 9.63254 77.0881 9.2038C77.5722 8.76122 78.1323 8.3878 78.7685 8.08353ZM83.5815 9.55647C82.7379 9.55647 82.2815 10.2411 82.2123 11.6103C82.8762 11.6656 83.2219 11.6933 83.2496 11.6933C84.1624 11.6933 84.6188 11.389 84.6188 10.7805C84.6188 9.96447 84.2731 9.55647 83.5815 9.55647ZM103.551 18.4149C102.362 18.4149 101.248 18.2835 100.211 18.0207C99.1874 17.758 98.4613 17.4952 98.0326 17.2324C97.6177 16.9696 97.3411 16.7829 97.2028 16.6723C96.8432 16.3818 96.6634 15.9807 96.6634 15.469C96.6634 15.0679 96.7118 14.6876 96.8086 14.328C96.9884 13.6503 97.3134 13.3115 97.7836 13.3115C97.9358 13.3253 98.4198 13.4843 99.2358 13.7886C100.066 14.0929 100.716 14.245 101.186 14.245C101.891 14.245 102.244 13.9684 102.244 13.4152C102.244 13.0833 102.071 12.779 101.725 12.5024C101.38 12.2119 100.958 11.9353 100.46 11.6725C99.9758 11.4098 99.4848 11.1124 98.9869 10.7805C98.489 10.4347 98.0672 9.96447 97.7214 9.36976C97.3756 8.76122 97.2028 8.05586 97.2028 7.2537C97.2028 5.92597 97.8528 4.88868 99.1529 4.14183C100.453 3.38115 102.133 3.00081 104.194 3.00081C106.255 3.00081 107.887 3.21519 109.09 3.64393C110.307 4.05885 110.916 4.63973 110.916 5.38658C110.916 5.92597 110.791 6.40312 110.542 6.81803C110.293 7.21912 110.031 7.41966 109.754 7.41966C109.657 7.41966 109.332 7.31593 108.779 7.10847C108.239 6.88719 107.749 6.77654 107.306 6.77654C106.435 6.77654 105.999 7.11539 105.999 7.79308C105.999 8.12502 106.206 8.42929 106.621 8.7059C107.036 8.98251 107.534 9.2522 108.115 9.51498C108.71 9.76393 109.304 10.0475 109.899 10.3656C110.494 10.6837 110.999 11.1193 111.414 11.6725C111.829 12.2258 112.036 12.8965 112.036 13.6849C112.036 14.4732 111.78 15.1924 111.268 15.8424C110.77 16.4925 110.107 16.9973 109.277 17.3569C107.631 18.0622 105.722 18.4149 103.551 18.4149ZM118.915 8.35322L118.894 13.4152C118.894 13.8163 118.984 14.1205 119.164 14.328C119.344 14.5355 119.572 14.6392 119.849 14.6392C120.139 14.6392 120.409 14.5355 120.658 14.328C120.921 14.1067 121.107 13.8094 121.218 13.4359V12.1704C121.218 10.3448 121.259 9.10007 121.342 8.4362C121.384 8.20108 121.501 7.99363 121.695 7.81383C121.889 7.63403 122.228 7.53031 122.712 7.50264C123.21 7.46115 123.7 7.44041 124.185 7.44041C124.669 7.44041 125.492 7.46807 126.653 7.52339C126.985 7.53722 127.248 7.63403 127.442 7.81383C127.635 7.99363 127.746 8.20108 127.774 8.4362C127.87 9.33519 127.919 10.7182 127.919 12.5854C127.919 14.4386 127.891 15.7041 127.836 16.3818C127.78 17.0595 127.677 17.5021 127.525 17.7096C127.372 17.917 127.061 18.0207 126.591 18.0207H122.546C122.075 18.0207 121.757 17.917 121.591 17.7096C121.439 17.5021 121.342 17.1494 121.301 16.6515V16.6308C119.876 17.7234 118.431 18.2697 116.965 18.2697C115.499 18.2697 114.386 17.9101 113.625 17.1909C112.878 16.4579 112.491 15.4275 112.463 14.0998C112.449 12.7721 112.442 11.5896 112.442 10.5523C112.442 9.51498 112.449 8.81654 112.463 8.45695C112.477 8.09736 112.567 7.84149 112.733 7.68936C112.913 7.52339 113.252 7.44041 113.749 7.44041L117.733 7.39891C118.175 7.39891 118.479 7.4819 118.645 7.64786C118.825 7.8 118.915 8.03512 118.915 8.35322ZM135.977 10.6145C135.161 10.6145 134.753 11.2161 134.753 12.4194C134.753 13.6088 135.148 14.2035 135.936 14.2035C136.282 14.2035 136.579 14.1136 136.828 13.9338C137.091 13.7402 137.222 13.4705 137.222 13.1247V11.6933C137.222 11.3614 137.091 11.0986 136.828 10.9049C136.579 10.7113 136.295 10.6145 135.977 10.6145ZM143.778 8.4362L143.819 14.8052C143.819 16.1882 143.812 17.2393 143.799 17.9585C143.785 18.6777 143.577 19.3277 143.176 19.9086C142.775 20.4895 142.229 20.9459 141.537 21.2778C140.182 21.9002 138.377 22.2114 136.123 22.2114C133.868 22.2114 132.022 21.9071 130.583 21.2986C130.238 21.1464 129.982 20.9805 129.816 20.8007C129.664 20.6347 129.588 20.3304 129.588 19.8879C129.588 19.4591 129.671 19.141 129.837 18.9336C130.016 18.7261 130.224 18.6224 130.459 18.6224C130.694 18.6224 130.985 18.7054 131.33 18.8713C132.395 19.3969 133.46 19.6597 134.525 19.6597C135.009 19.6597 135.445 19.6043 135.832 19.4937C136.219 19.3969 136.558 19.1894 136.849 18.8713C137.153 18.5532 137.305 18.1452 137.305 17.6473L137.284 16.5478C137.284 16.4095 137.243 16.3403 137.16 16.3403C137.118 16.3403 137.077 16.3611 137.035 16.4026C135.929 17.4675 134.712 18 133.384 18C132.056 18 130.943 17.5782 130.044 16.7345C129.159 15.8908 128.716 14.5562 128.716 12.7306C128.716 10.9049 129.242 9.52881 130.293 8.60217C131.344 7.66169 132.63 7.19146 134.152 7.19146C135.673 7.19146 136.8 7.66861 137.533 8.62292C137.547 8.26332 137.679 7.98671 137.927 7.79308C138.176 7.59946 138.453 7.48881 138.757 7.46115C139.062 7.43349 139.615 7.41966 140.417 7.41966L142.616 7.46115C142.879 7.46115 143.135 7.55797 143.384 7.75159C143.646 7.93139 143.778 8.15959 143.778 8.4362ZM152.37 7.10847C156.879 7.10847 159.154 8.57451 159.195 11.5066C159.223 12.7513 159.237 13.8923 159.237 14.9296C159.237 15.9669 159.23 16.6654 159.216 17.0249C159.202 17.3845 159.106 17.6473 158.926 17.8133C158.76 17.9654 158.428 18.0415 157.93 18.0415H153.532C153.089 18.0415 152.785 17.9654 152.619 17.8133C152.453 17.6473 152.363 17.4053 152.349 17.0872C152.349 17.0734 152.342 17.0526 152.329 17.0249C152.329 16.9835 152.329 16.9489 152.329 16.9212C151.416 17.8617 150.171 18.3319 148.594 18.3319C147.502 18.3319 146.568 18.0622 145.794 17.5228C145.033 16.9696 144.653 16.2159 144.653 15.2616C144.653 14.2934 144.922 13.5258 145.462 12.9588C146.015 12.3779 146.665 11.9837 147.412 11.7763C148.173 11.5688 148.982 11.4651 149.839 11.4651C150.71 11.4651 151.561 11.5481 152.391 11.714V11.6311C152.391 10.9395 152.253 10.4416 151.976 10.1374C151.713 9.83308 151.277 9.68095 150.669 9.68095C150.074 9.68095 149.576 9.73627 149.175 9.84692C148.774 9.94373 148.47 10.0475 148.262 10.1581C147.695 10.49 147.301 10.656 147.08 10.656C146.859 10.656 146.658 10.5523 146.478 10.3448C146.312 10.1374 146.229 9.81925 146.229 9.39051C146.229 8.94793 146.305 8.64366 146.458 8.47769C146.624 8.31173 146.879 8.14576 147.225 7.9798C148.428 7.39892 150.143 7.10847 152.37 7.10847ZM151.395 15.5935C152.004 15.5935 152.315 15.4759 152.329 15.2408C152.356 14.7844 152.37 14.1828 152.37 13.4359C152.37 13.1455 152.149 13.0003 151.706 13.0003C151.264 13.0003 150.904 13.1109 150.627 13.3322C150.351 13.5397 150.213 13.8508 150.213 14.2658C150.213 14.6807 150.323 15.0057 150.544 15.2408C150.78 15.4759 151.063 15.5935 151.395 15.5935ZM161.804 7.44041H165.849C166.32 7.44041 166.645 7.54414 166.824 7.75159C167.004 7.94522 167.094 8.24258 167.094 8.64366V9.39051C167.869 7.92447 169.127 7.19146 170.87 7.19146C171.451 7.19146 171.928 7.37817 172.301 7.75159C172.675 8.12502 172.861 8.62292 172.861 9.24529C172.861 9.86766 172.695 10.49 172.364 11.1124C172.032 11.7209 171.568 12.0252 170.974 12.0252C170.697 12.0252 170.31 11.8869 169.812 11.6103C169.314 11.3199 168.913 11.1746 168.609 11.1746C168.304 11.1746 167.986 11.2853 167.654 11.5066C167.336 11.7279 167.177 12.0944 167.177 12.6061C167.177 14.8328 167.136 16.3058 167.053 17.0249C167.011 17.2601 166.894 17.4675 166.7 17.6473C166.506 17.8271 166.161 17.9378 165.663 17.9793C165.179 18.0069 164.694 18.0207 164.21 18.0207C163.726 18.0207 162.903 17.9931 161.742 17.9378C161.41 17.9239 161.147 17.8271 160.953 17.6473C160.76 17.4675 160.649 17.2601 160.621 17.0249C160.525 16.126 160.476 14.7498 160.476 12.8965C160.476 11.0433 160.504 9.77776 160.559 9.10007C160.614 8.40854 160.718 7.95905 160.87 7.75159C161.022 7.54414 161.334 7.44041 161.804 7.44041ZM57.3104 22.478H59.5302C60.0005 22.478 60.3255 22.554 60.5053 22.7062C60.6989 22.8583 60.8026 23.1695 60.8165 23.6397C60.8995 25.742 60.9409 28.0033 60.9409 30.4236C60.9409 32.8439 60.8925 34.6142 60.7957 35.7345C60.7681 36.0526 60.6436 36.3431 60.4223 36.6058C60.2148 36.8686 59.9382 37 59.5925 37H56.1279C55.6439 37 55.1114 36.8271 54.5305 36.4814C51.3218 34.5866 49.3026 33.4317 48.4727 33.0168C48.3068 32.9477 48.1685 32.9753 48.0578 33.0998C47.961 33.2104 47.9126 33.4248 47.9126 33.7429V36.0457C47.9126 36.3085 47.8158 36.5159 47.6222 36.6681C47.3317 36.9032 46.5849 37.0207 45.3816 37.0207C45.0497 37.0207 44.7247 37.0138 44.4066 37C44.0885 36.9723 43.8257 36.8271 43.6182 36.5643C43.4246 36.3016 43.3209 36.018 43.307 35.7138C43.2656 34.0541 43.2448 31.9726 43.2448 29.4693C43.2448 26.9521 43.2517 25.3132 43.2656 24.5525C43.2794 23.7919 43.3693 23.2594 43.5352 22.9551C43.7012 22.637 44.0193 22.478 44.4896 22.478H46.7716C47.2418 22.478 47.7259 22.6094 48.2238 22.8721C52.5112 25.0988 55.0146 26.392 55.7338 26.7516C55.9689 26.8622 56.1556 26.8761 56.2939 26.7931C56.4322 26.7101 56.5013 26.558 56.5013 26.3367V23.4323C56.5013 23.1557 56.5705 22.9275 56.7088 22.7477C56.8609 22.5679 57.0615 22.478 57.3104 22.478ZM68.1157 31.8136C68.1157 33.3626 68.5237 34.1371 69.3397 34.1371C70.1557 34.1371 70.5637 33.3626 70.5637 31.8136C70.5637 31.1082 70.4808 30.5688 70.3148 30.1954C70.1488 29.8081 69.8238 29.6145 69.3397 29.6145C68.8557 29.6145 68.5306 29.8081 68.3647 30.1954C68.1987 30.5688 68.1157 31.1082 68.1157 31.8136ZM77.0779 31.8136C77.0779 35.5755 74.4985 37.4564 69.3397 37.4564C64.181 37.4564 61.6016 35.5755 61.6016 31.8136C61.6016 30.0294 62.2585 28.6464 63.5724 27.6644C64.8863 26.6824 66.8088 26.1915 69.3397 26.1915C71.8707 26.1915 73.7932 26.6824 75.1071 27.6644C76.421 28.6464 77.0779 30.0294 77.0779 31.8136ZM84.0106 31.8136C84.0106 33.3626 84.4186 34.1371 85.2346 34.1371C86.0506 34.1371 86.4586 33.3626 86.4586 31.8136C86.4586 31.1082 86.3756 30.5688 86.2096 30.1954C86.0436 29.8081 85.7186 29.6145 85.2346 29.6145C84.7505 29.6145 84.4255 29.8081 84.2595 30.1954C84.0935 30.5688 84.0106 31.1082 84.0106 31.8136ZM92.9727 31.8136C92.9727 35.5755 90.3933 37.4564 85.2346 37.4564C80.0758 37.4564 77.4964 35.5755 77.4964 31.8136C77.4964 30.0294 78.1533 28.6464 79.4672 27.6644C80.7811 26.6824 82.7036 26.1915 85.2346 26.1915C87.7655 26.1915 89.688 26.6824 91.0019 27.6644C92.3158 28.6464 92.9727 30.0294 92.9727 31.8136ZM105.963 37.0207L103.681 37C103.156 37 102.789 36.8409 102.582 36.5228L100.652 33.4525C100.542 33.3695 100.472 33.3418 100.445 33.3695C100.431 33.3833 100.417 33.6184 100.403 34.0748C100.403 34.5174 100.369 35.1951 100.3 36.1079C100.272 36.3292 100.161 36.5298 99.9676 36.7096C99.774 36.8894 99.442 36.9931 98.9718 37.0207C98.5154 37.0484 97.9553 37.0622 97.2914 37.0622C96.6414 37.0622 95.9153 37.0415 95.1131 37C94.7812 36.9862 94.5184 36.8963 94.3248 36.7303C94.145 36.5505 94.0412 36.3431 94.0136 36.1079C93.8753 34.4206 93.8061 32.1662 93.8061 29.3448C93.8061 26.5234 93.8614 24.4696 93.9721 23.1833C94.0136 22.7131 94.1035 22.3742 94.2418 22.1668C94.3939 21.9455 94.6982 21.8348 95.1546 21.8348H99.1378C99.5942 21.8348 99.8985 21.9455 100.051 22.1668C100.203 22.3742 100.3 22.7131 100.341 23.1833C100.424 24.3866 100.466 26.4058 100.466 29.2411C100.466 29.5592 100.521 29.7182 100.631 29.7182C100.701 29.7182 100.777 29.6767 100.86 29.5938L103.577 27.1043C103.812 26.8968 104.006 26.7654 104.158 26.7101C104.31 26.6409 104.525 26.6064 104.801 26.6064H107.83C108.01 26.6064 108.141 26.7239 108.224 26.9591C108.252 27.0144 108.266 27.0974 108.266 27.208C108.266 27.3186 108.197 27.4431 108.058 27.5814L105.175 30.1124C105.064 30.2231 105.064 30.3406 105.175 30.4651C106.489 32.0141 107.886 33.8259 109.365 35.9005C109.518 36.1079 109.594 36.2946 109.594 36.4606C109.594 36.8064 109.338 36.9793 108.826 36.9793L105.963 37.0207Z" fill="#D232AF"/>
<path d="M28.8452 23.8495L33.9481 26.639L36.7376 21.5362L31.6348 18.7466L28.8452 23.8495ZM24.831 15.0273L29.9338 17.8168L27.1443 22.9196L22.0415 20.1301L24.831 15.0273ZM31.9523 10.0832L37.0551 12.8727L34.2656 17.9755L29.1627 15.186L31.9523 10.0832ZM9.36378 10.9904C15.7423 14.4773 17.9309 18.4353 19.4107 20.9012L34.7192 29.2698C32.6642 33.0289 27.9551 34.4091 24.196 32.3542L22.4951 31.4243C20.7941 30.4945 19.5733 29.0097 18.9684 27.2872C17.6535 23.8731 15.865 20.5977 13.0376 18.2126C11.4299 16.8697 9.57924 15.5267 7.50409 14.3923L0.700317 10.6729L2.56001 7.271L9.36378 10.9904Z" fill="#24B5D5"/>
</svg>
